<svg width="201" height="208" viewBox="0 0 201 208" fill="none" xmlns="http://www.w3.org/2000/svg">
<path d="M58 98L24.5 122L32.5 126L63.5 104.5L58 98Z" fill="#D9CE9A" fill-opacity="0.65"/>
<path d="M171 128C158.235 135.294 139.481 146.667 139.481 146.667L149 151.706L172.5 137.5L184.5 130L193 125V117L187.5 119.5L180.5 122.5C180.5 122.5 174.5 126 171 128Z" fill="#D9CE9A" fill-opacity="0.65"/>
<path d="M67 123L4 158.5V167L67 133L86.5 142.5V132C79.6658 128.681 73.8342 126.319 67 123Z" fill="#D9CE9A" fill-opacity="0.65"/>
<path d="M67 144.5L39.5 159.5L27 166.5L86.5 169V154L67 144.5Z" fill="#D9CE9A" fill-opacity="0.65"/>
<path d="M193 175L116.5 134.5V145.5L193 183V175Z" fill="#D9CE9A" fill-opacity="0.65"/>
<path d="M116.5 154L179 183H137.5H116.5V154Z" fill="#D9CE9A" fill-opacity="0.65"/>
<path d="M147 98L179 123.374L175.719 125.279L172.447 127.17L142 104L147 98Z" fill="#D9CE9A" fill-opacity="0.65"/>
<path d="M32.5 126L49 133.143L39 138.778L3 123V113L24.5 122L32.5 126Z" fill="#D9CE9A" fill-opacity="0.65"/>
<path d="M84.25 88.5L78 81L104.25 61L128 80.375L121.75 87.875L104.25 73.5L84.25 88.5Z" fill="#D9A404" fill-opacity="0.75"/>
<path d="M102.5 200C94 200 88 187.5 88 184.349V178H115.5V184.349C115.5 187.197 111 200 102.5 200Z" stroke="#BF6B04" stroke-width="5" stroke-linejoin="round"/>
<path d="M89 137.5V168H114V137.5H89Z" stroke="#BF6B04" stroke-width="5" stroke-linejoin="round"/>
<path d="M102 168H90C89 168 87.5 169 87 170.5C86.5 172 86.5 172.579 86.5 174C86.5 175 88 178 88 178H115.452C115.452 178 117 175 117 174C117 172.579 117 172 116.484 170.5C115.968 169 114.419 168 113.387 168H101" stroke="#BF6B04" stroke-width="5" stroke-linejoin="round"/>
<path d="M118 128H87L88.5 138H114.125L118 128Z" stroke="#BF6B04" stroke-width="4" stroke-linejoin="round"/>
<path d="M85 121C85 121.5 85.5 128 85.5 128L89 125.5V123C89 122.5 90 121.5 91 121.5H112C113.5 121.5 115 122.5 115 123.5V125.5L119.508 127.896C119.5 125.5 119.384 124.237 119.508 121C118.971 119.696 117.538 119.341 115 118.5V110.5L108.5 112.5V119H96V112.5L90.5 110.5V118.5C87.3103 119.201 85 120.5 85 121Z" fill="#BF6B04"/>
<path d="M119.5 128C119.503 127.965 119.505 127.93 119.508 127.896M119.508 127.896C119.5 125.5 119.384 124.237 119.508 121C118.971 119.696 117.538 119.341 115 118.5V110.5L108.5 112.5V119H96V112.5L90.5 110.5V118.5C87.3103 119.201 85 120.5 85 121C85 121.5 85.5 128 85.5 128L89 125.5C89 125.5 89 123.5 89 123C89 122.5 90 121.5 91 121.5C92 121.5 110.5 121.5 112 121.5C113.5 121.5 115 122.5 115 123.5C115 124.5 115 125.5 115 125.5L119.508 127.896Z" stroke="#BF6B04" stroke-linejoin="round"/>
<path d="M89 125.5H115" stroke="#BF6B04" stroke-linejoin="round"/>
<path d="M96 119V113H108.5V119H96Z" stroke="#BF6B04" stroke-linejoin="round"/>
<path d="M151 60.5C151 87.8927 129.232 110 102.5 110C75.7683 110 54 87.8927 54 60.5C54 33.1073 75.7683 11 102.5 11C129.232 11 151 33.1073 151 60.5Z" stroke="#BF6B04" stroke-width="6"/>
<path d="M136 60.5C136 79.6308 120.926 95 102.5 95C84.0744 95 69 79.6308 69 60.5C69 41.3692 84.0744 26 102.5 26C120.926 26 136 41.3692 136 60.5Z" stroke="#BF6B04" stroke-width="6"/>
<rect x="4" y="4" width="193" height="200" stroke="#BF6B04" stroke-width="8"/>
</svg>
